<svg width="147" height="31" viewBox="0 0 147 31" fill="none" xmlns="http://www.w3.org/2000/svg">
<path d="M8.55701 11.4932C7.93535 11.6726 7.31369 11.9162 6.69203 12.2238C6.07036 12.5314 5.54012 12.8583 5.1013 13.2044C4.69905 13.5504 4.42478 13.8965 4.27851 14.2426C4.13223 14.5759 4.18709 14.8707 4.44307 15.127C4.73561 15.3706 5.26586 15.55 6.03379 15.6654C6.8383 15.7679 7.9902 15.7615 9.48951 15.6462C10.9522 15.518 12.4698 15.3129 14.0423 15.0309C15.6147 14.7489 17.0592 14.4285 18.3756 14.0696C19.6921 13.6979 20.7709 13.3133 21.6119 12.916C22.453 12.5186 22.8736 12.1469 22.8736 11.8008C22.8736 11.4291 22.5079 11.1151 21.7765 10.8587C21.0817 10.6023 20.1858 10.378 19.0887 10.1858C18.0282 9.98067 16.8398 9.80122 15.5233 9.64741C14.2434 9.48078 13.0001 9.30774 11.7933 9.12829C10.6231 8.93602 9.58093 8.71812 8.66672 8.47458C7.75251 8.23104 7.14913 7.92982 6.85658 7.57092C6.45433 7.08384 6.6006 6.53267 7.2954 5.91741C8.02677 5.28934 9.08726 4.67408 10.4769 4.07164C11.8665 3.4692 13.4938 2.92444 15.3587 2.43736C17.2237 1.93747 19.0887 1.57857 20.9537 1.36067C22.8553 1.14276 24.6288 1.0979 26.2744 1.22608C27.9566 1.35426 29.3279 1.73879 30.3884 2.37968C30.6444 2.18742 30.9735 1.96951 31.3757 1.72597C31.8145 1.48243 32.2351 1.2453 32.6373 1.01458C33.0396 0.783861 33.4236 0.578776 33.7892 0.399326C34.1915 0.219876 34.5023 0.104515 34.7217 0.0532432C35.0508 -0.0236637 35.5811 -0.0172547 36.3125 0.0724699C37.0438 0.149378 37.7203 0.271147 38.342 0.437779C39.0002 0.591593 39.4939 0.764634 39.823 0.956902C40.1887 1.14917 40.1521 1.30298 39.7133 1.41834C39.0185 1.63625 38.2323 1.95029 37.3547 2.36046C36.477 2.75781 35.5994 3.20644 34.7217 3.70633C33.8807 4.19341 33.0762 4.70613 32.3082 5.24448C31.5403 5.77001 30.9003 6.2699 30.3884 6.74417C29.913 7.20561 29.6022 7.61578 29.4559 7.97468C29.3462 8.32076 29.4924 8.5643 29.8947 8.7053C29.529 8.82066 29.0536 8.86552 28.4685 8.83989C27.8834 8.80143 27.3166 8.71171 26.7681 8.57071C26.2196 8.4169 25.7442 8.22463 25.3419 7.99391C24.9762 7.75037 24.8483 7.48119 24.958 7.18638C25.0677 6.82748 25.3236 6.43013 25.7259 5.99432C26.1647 5.55851 26.5853 5.12271 26.9875 4.6869C27.3898 4.23827 27.6823 3.81529 27.8652 3.41793C28.0846 3.00776 28.0297 2.64886 27.7006 2.34123C27.5177 2.1746 27.0241 2.12974 26.2196 2.20664C25.4516 2.27073 24.5191 2.42455 23.4221 2.66809C22.325 2.89881 21.1548 3.19362 19.9115 3.55252C18.7048 3.91142 17.5711 4.29596 16.5106 4.70613C15.4502 5.10348 14.536 5.50724 13.768 5.91741C13.0366 6.32758 12.6161 6.69289 12.5064 7.01334C12.3967 7.33379 12.7258 7.60296 13.4938 7.82087C14.2983 8.02595 15.3222 8.23104 16.5655 8.43612C17.8454 8.62839 19.235 8.83348 20.7343 9.05138C22.2336 9.25647 23.6049 9.51282 24.8483 9.82045C26.1281 10.1153 27.1703 10.487 27.9749 10.9356C28.7794 11.3714 29.1268 11.9162 29.0171 12.5699C28.9805 12.8903 28.6331 13.2364 27.9749 13.6081C27.3532 13.9798 26.5121 14.3516 25.4516 14.7233C24.3911 15.095 23.1661 15.4539 21.7765 15.8C20.3869 16.1461 18.9059 16.4537 17.3334 16.7229C15.761 17.0049 14.152 17.2356 12.5064 17.415C10.8608 17.5945 9.2701 17.7034 7.73423 17.7419C6.41776 17.7675 5.30242 17.7483 4.38821 17.6842C3.474 17.6201 2.70606 17.524 2.0844 17.3958C1.35303 17.2292 0.82279 17.0241 0.493674 16.7805C0.164558 16.537 0 16.2678 0 15.973C0 15.6654 0.12799 15.3449 0.383969 15.0117C0.639948 14.6784 0.987348 14.3452 1.42617 14.0119C2.15754 13.4607 3.0169 12.9352 4.00424 12.4353C5.02816 11.9354 6.05208 11.5124 7.07599 11.1663C7.25884 11.1151 7.47825 11.0958 7.73423 11.1086C7.9902 11.1086 8.20961 11.1343 8.39246 11.1856C8.5753 11.224 8.68501 11.2753 8.72157 11.3394C8.79471 11.4035 8.73986 11.4547 8.55701 11.4932Z" fill="#1E1E1E"/>
<path d="M50.4387 9.10906C50.5484 9.05779 50.7496 9.03856 51.0421 9.05138C51.3712 9.05138 51.6638 9.07702 51.9198 9.12829C52.2123 9.17956 52.4317 9.25006 52.578 9.33978C52.7608 9.41669 52.7791 9.5 52.6328 9.58973C51.938 10.0127 51.1335 10.487 50.2193 11.0125C49.3417 11.5252 48.3909 12.0315 47.367 12.5314C46.3796 13.0313 45.3557 13.4864 44.2952 13.8965C43.2348 14.2939 42.1926 14.5759 41.1686 14.7425C40.6201 14.8322 40.035 14.8643 39.4133 14.8386C38.8283 14.8002 38.2797 14.7297 37.7678 14.6271C37.2924 14.5118 36.8718 14.3772 36.5062 14.2234C36.177 14.0568 35.9942 13.8965 35.9576 13.7427C35.8845 13.5376 35.9576 13.2556 36.177 12.8967C36.3965 12.5378 36.6341 12.211 36.8901 11.9162C36.4513 12.0956 35.9759 12.3071 35.464 12.5507C34.9886 12.7814 34.4583 13.0313 33.8732 13.3005C33.2881 13.5697 32.6665 13.8388 32.0082 14.108C31.3866 14.3772 30.7283 14.6271 30.0335 14.8579C29.7044 14.9732 29.1925 15.0181 28.4977 14.9925C27.8394 14.9668 27.1812 14.9027 26.523 14.8002C25.8647 14.6848 25.2979 14.5438 24.8225 14.3772C24.3106 14.1977 24.0912 14.0119 24.1643 13.8196C24.274 13.3325 24.6031 12.8134 25.1517 12.2623C25.7002 11.7111 26.3767 11.1791 27.1812 10.6664C27.9491 10.1409 28.8085 9.65382 29.7593 9.20519C30.7466 8.75657 31.7157 8.39126 32.6665 8.10927C33.3613 7.917 34.0012 7.80805 34.5863 7.78241C35.1714 7.75678 35.7382 7.78241 36.2867 7.85932C36.8353 7.92341 37.3838 8.02595 37.9323 8.16695C38.4809 8.29513 39.0659 8.42331 39.6876 8.55148C40.0899 8.39767 40.4738 8.23745 40.8395 8.07081C41.2418 7.89136 41.6623 7.71832 42.1011 7.55169C42.3571 7.43633 42.7594 7.39147 43.3079 7.4171C43.893 7.44274 44.4415 7.51324 44.9535 7.6286C45.4654 7.74396 45.8677 7.88496 46.1602 8.05159C46.4893 8.2054 46.5259 8.35281 46.2699 8.4938C45.0266 9.23724 44.021 9.89736 43.253 10.4742C42.5217 11.051 41.9731 11.538 41.6075 11.9354C41.2783 12.3328 41.1138 12.634 41.1138 12.8391C41.1503 13.0441 41.2966 13.1467 41.5526 13.1467C42.284 13.1339 43.3993 12.7878 44.8986 12.1084C46.3979 11.4291 48.2446 10.4293 50.4387 9.10906ZM37.1095 9.8589C37.2192 9.80763 37.2741 9.71791 37.2741 9.58973C37.2741 9.46155 37.201 9.34619 37.0547 9.24365C36.945 9.12829 36.7621 9.05779 36.5062 9.03215C36.2502 9.00652 35.9211 9.07061 35.5188 9.22442C34.6777 9.50641 33.8915 9.83968 33.1601 10.2242C32.4653 10.6087 31.8437 10.9869 31.2952 11.3586C30.7832 11.7303 30.3627 12.0764 30.0335 12.3968C29.7044 12.7045 29.5399 12.9352 29.5399 13.089C29.9421 12.9736 30.4724 12.7878 31.1306 12.5314C31.8254 12.2623 32.5385 11.9674 33.2699 11.647C34.0012 11.3265 34.7143 11.0061 35.4091 10.6857C36.1039 10.3652 36.6707 10.0896 37.1095 9.8589Z" fill="#1E1E1E"/>
<path d="M47.8491 17.2804C47.7028 17.2933 47.5017 17.2933 47.2457 17.2804C47.0263 17.2804 46.7337 17.274 46.3681 17.2612C45.6733 17.2612 44.7591 17.101 43.6254 16.7805C42.4918 16.4729 41.6873 15.9858 41.2119 15.3193C41.1753 15.2552 41.1571 15.1847 41.1571 15.1078C41.1205 15.0309 41.1022 14.954 41.1022 14.8771C41.0291 14.4028 41.1571 13.8453 41.4862 13.2044C41.7787 12.5635 42.2907 11.8393 43.0221 11.0317C43.7169 10.2242 44.5396 9.41669 45.4904 8.60916C46.4412 7.78882 47.5017 6.96848 48.6719 6.14814C49.8421 5.34061 50.9574 4.66126 52.0179 4.1101C53.1149 3.54611 54.1389 3.1103 55.0896 2.80267C55.3822 2.73858 55.6564 2.70654 55.9124 2.70654C56.205 2.70654 56.5524 2.73218 56.9546 2.78345C57.3934 2.83472 57.8688 2.93085 58.3808 3.07185L58.7099 3.12953C59.6973 3.33461 60.2275 3.5397 60.3006 3.74479C60.3372 3.80888 60.2275 3.88578 59.9715 3.97551C58.0334 4.59076 56.1501 5.43674 54.3217 6.51344C52.5298 7.60296 51.0123 8.73734 49.7689 9.91659C48.4525 11.0958 47.52 12.2366 46.9714 13.339C46.5326 14.1208 46.3498 14.813 46.4229 15.4154C46.4595 15.518 46.4961 15.6526 46.5326 15.8192C46.6058 15.973 46.6972 16.1589 46.8069 16.3768C47.0994 16.8126 48.0502 17.0369 49.6592 17.0497C49.1473 17.2035 48.5439 17.2804 47.8491 17.2804Z" fill="#1E1E1E"/>
<path d="M88.8874 9.2821C89.18 9.4231 89.2348 9.58973 89.052 9.782C88.9057 9.96145 88.4852 10.3075 87.7904 10.8202C87.4247 11.0381 86.9676 11.3009 86.4191 11.6085C85.8705 11.9162 85.2306 12.2558 84.4992 12.6276C82.8902 13.3838 81.3726 13.9093 79.9465 14.2042C79.2517 14.3323 78.4106 14.3772 77.4232 14.3387C76.9113 14.3003 76.4359 14.2554 75.9971 14.2042C75.5948 14.1529 75.1926 14.0888 74.7903 14.0119C73.9858 13.8324 73.5104 13.653 73.3641 13.4735C73.1813 13.1915 73.2362 12.7878 73.5287 12.2623C73.7115 12.0059 73.8761 11.7559 74.0224 11.5124C74.2052 11.2561 74.4063 10.9933 74.6258 10.7241C74.8452 10.4678 75.0463 10.2498 75.2291 10.0704C75.412 9.87813 75.5765 9.7115 75.7228 9.5705C75.7594 9.51923 75.7959 9.47437 75.8325 9.43592C75.8691 9.39746 75.8874 9.36542 75.8874 9.33978C75.0097 9.63459 74.1138 10.0063 73.1996 10.4549C72.2854 10.8907 71.298 11.4035 70.2375 11.9931C68.1531 13.1595 66.599 14.1144 65.5751 14.8579C65.3557 15.0373 64.7706 15.1078 63.8198 15.0694C62.9421 15.0309 62.1559 14.9412 61.4611 14.8002C60.6932 14.6464 60.3641 14.4733 60.4738 14.2811C60.5835 14.1273 60.748 13.9414 60.9674 13.7235C61.1869 13.4928 61.4428 13.2172 61.7354 12.8967C62.1742 12.4609 62.5947 12.0123 62.997 11.5509C63.4358 11.0766 63.8563 10.5959 64.2586 10.1089C64.5146 9.78841 64.7157 9.4936 64.862 9.22442C65.0448 8.94243 65.1728 8.67325 65.2459 8.4169C65.2459 8.36563 65.2459 8.32717 65.2459 8.30154C65.2825 8.26308 65.3008 8.22463 65.3008 8.18617C65.1911 7.75037 64.6974 7.48119 63.8198 7.37865C62.7593 7.26329 61.6622 7.26329 60.5286 7.37865C59.3219 7.48119 58.3711 7.60937 57.6763 7.76319C59.651 8.09645 60.748 8.62198 60.9674 9.33978C60.9674 9.87813 60.7846 10.4293 60.4189 10.9933C60.0898 11.5573 59.523 12.1277 58.7185 12.7045C57.2192 13.8581 55.6833 14.6015 54.1109 14.9348C52.3921 15.1911 50.4357 15.2104 48.2416 14.9925C46.0475 14.7617 44.7128 14.2554 44.2374 13.4735C44.1642 13.1787 44.2008 12.8519 44.3471 12.493C44.4568 12.1213 44.7128 11.7239 45.115 11.3009C45.4807 10.8779 45.883 10.4934 46.3218 10.1473C46.7972 9.78841 47.2908 9.46796 47.8028 9.18597C48.2051 9.03215 48.8084 9.00011 49.6129 9.08983C50.3809 9.16674 51.1122 9.31415 51.807 9.53205C52.4287 9.72432 52.5933 9.91018 52.3007 10.0896C52.0447 10.2306 51.7705 10.3973 51.4779 10.5895C51.1854 10.7818 50.8746 10.9997 50.5454 11.2432C50.2163 11.4868 49.9238 11.7239 49.6678 11.9546C49.4484 12.1853 49.2473 12.4289 49.0644 12.6852C48.6622 13.1851 48.6622 13.5889 49.0644 13.8965C49.2107 14.0247 49.5032 14.0824 49.9421 14.0696C50.3443 14.0311 50.8928 13.8901 51.5876 13.6466C52.5384 13.262 53.3429 12.8583 54.0012 12.4353C54.6594 11.9995 55.1896 11.5509 55.5919 11.0894C56.433 10.1665 56.5975 9.44232 56.0856 8.91679C55.5736 8.40408 54.2754 8.36562 52.191 8.80143C51.3499 8.95525 50.5454 8.94243 49.7775 8.76298C48.9364 8.59635 48.3513 8.35922 48.0222 8.05159C47.6931 7.76959 47.9125 7.54528 48.6804 7.37865C49.8506 7.16075 51.1488 6.96207 52.575 6.78262C54.0377 6.60317 55.6102 6.46217 57.2923 6.35963C60.7297 6.15454 63.8746 6.35322 66.727 6.95566C68.0069 7.25047 68.8662 7.60937 69.305 8.03236C69.7439 8.45535 69.8901 8.89116 69.7439 9.33978C69.6707 9.53205 69.5793 9.72432 69.4696 9.91659C69.3599 10.1089 69.1953 10.3075 68.9759 10.5126C68.7931 10.6664 68.6102 10.8267 68.4274 10.9933C68.2811 11.1471 68.1166 11.3009 67.9337 11.4547C68.0434 11.4035 68.1531 11.3522 68.2628 11.3009C68.3725 11.2496 68.464 11.192 68.5371 11.1279C69.2685 10.7562 69.9998 10.3844 70.7312 10.0127C71.4991 9.641 72.3037 9.25006 73.1447 8.83989C74.7903 8.04518 76.2896 7.47478 77.6426 7.1287C78.3374 6.97489 79.142 6.94925 80.0562 7.05179C80.9338 7.1287 81.7017 7.28252 82.36 7.51324C82.9085 7.75678 83.0913 7.98109 82.9085 8.18617C82.7988 8.28872 82.6708 8.39767 82.5245 8.51303C82.4148 8.61557 82.2686 8.73734 82.0857 8.87834C81.6469 9.22442 81.2081 9.58973 80.7692 9.97427C80.3304 10.3588 79.8733 10.7626 79.3979 11.1856C78.5203 12.0187 78.0815 12.6788 78.0815 13.1659C78.7031 13.0506 79.3248 12.8967 79.9465 12.7045C80.6047 12.4994 81.2446 12.2494 81.8663 11.9546C82.5977 11.6598 83.2376 11.3522 83.7861 11.0317C84.3712 10.7113 84.9198 10.378 85.4317 10.0319C86.1997 9.54487 86.7482 9.25006 87.0773 9.14751C87.2236 9.12188 87.3516 9.10265 87.4613 9.08983C87.571 9.0642 87.6807 9.05779 87.7904 9.07061C88.2658 9.10906 88.6315 9.17956 88.8874 9.2821Z" fill="#1E1E1E"/>
<path d="M34.3412 14.5412C34.8166 14.4515 35.3835 14.4451 36.0417 14.522C36.6999 14.5861 28.552 18.7828 34.2126 16.0142C32.0423 17.8863 38.7295 15.15 38.9489 15.3295C39.1683 15.4961 39.0951 15.6307 38.7295 15.7333C37.2667 16.1306 35.804 16.7266 34.3412 17.5214C32.9151 18.3032 31.5986 19.1684 30.3919 20.117C29.1851 21.0655 28.1429 22.0396 27.2653 23.0394C26.4242 24.0392 25.8574 24.9557 25.5648 25.7889C25.3089 26.622 25.5648 25.7889 28.4172 28.7306C25.562 26.7133 28.856 29.2689 28.4172 28.7306C28.1246 28.8459 27.6858 28.9164 27.1007 28.9421C26.5156 28.9805 25.8757 28.9549 25.1809 28.8651C24.5226 28.7882 23.8644 28.6408 23.2062 28.4229C22.5845 28.205 22.0725 27.9102 21.6703 27.5385C21.268 27.1668 21.0303 26.7182 20.9572 26.1926C20.8841 25.6543 21.0852 25.0198 21.5606 24.2892C21.5606 24.2379 21.5423 24.2123 21.5057 24.2123C21.4692 24.1995 21.4143 24.2187 21.3412 24.27C21.0486 24.4494 20.7195 24.6417 20.3538 24.8468C19.9881 25.0518 19.5859 25.2505 19.1471 25.4428C18.7448 25.6222 18.3426 25.7825 17.9403 25.9235C17.5746 26.0645 17.2455 26.1542 16.953 26.1926C16.5141 26.2439 15.9839 26.2631 15.3622 26.2503C14.7771 26.2375 14.2103 26.1926 13.6618 26.1157C13.0767 26.026 12.583 25.9042 12.1808 25.7504C11.7785 25.5966 11.5591 25.4043 11.5225 25.1736C11.486 24.866 11.5957 24.5007 11.8517 24.0777C12.0711 23.6547 12.4185 23.2125 12.8939 22.751C13.3327 22.2896 13.8812 21.8282 14.5394 21.3667C15.1977 20.9053 15.9108 20.4951 16.6787 20.1362C17.4832 19.7645 18.3243 19.4633 19.2019 19.2325C20.1161 18.989 21.0486 18.8544 21.9994 18.8288C22.7308 18.816 23.4073 18.8608 24.029 18.9634C24.6872 19.0659 25.3088 19.1684 25.8939 19.271C26.0402 19.13 26.2962 18.9313 26.6619 18.675C27.0276 18.4058 27.4481 18.111 27.9235 17.7905C28.3989 17.4701 28.9108 17.1368 29.4594 16.7907C30.0445 16.4447 30.6113 16.1178 31.1598 15.8102C31.7449 15.5025 32.3117 15.2398 32.8602 15.0219C33.4087 14.7911 33.9024 14.6309 34.3412 14.5412ZM23.8644 20.6745C24.0107 20.5079 24.0107 20.3733 23.8644 20.2708C23.7547 20.1554 23.4256 20.1298 22.8771 20.1939C22.3651 20.258 21.8166 20.4054 21.2315 20.6361C20.6829 20.8668 20.1344 21.1424 19.5859 21.4628C19.0374 21.7705 18.5254 22.0973 18.05 22.4434C17.6112 22.7895 17.2455 23.1163 16.953 23.424C16.697 23.7188 16.5324 23.9751 16.4593 24.193C16.4227 24.4109 16.5507 24.5391 16.8433 24.5776C16.9895 24.6032 17.2638 24.5391 17.666 24.3853C18.0683 24.2315 18.5071 24.0264 18.9825 23.7701C19.4945 23.5137 20.0247 23.2317 20.5732 22.9241C21.1218 22.6036 21.6154 22.296 22.0543 22.0012C22.5297 21.6936 22.9319 21.4244 23.261 21.1937C23.5901 20.9501 23.7913 20.7771 23.8644 20.6745Z" fill="#1E1E1E"/>
<path d="M46.2957 22.5369C46.442 22.4856 46.6249 22.4664 46.8443 22.4792C47.1002 22.4921 47.3379 22.5241 47.5574 22.5754C47.7768 22.6266 47.9413 22.6971 48.051 22.7869C48.1607 22.8638 48.1425 22.9471 47.9962 23.0368C47.5208 23.5367 46.8443 24.0366 45.9666 24.5365C45.1256 25.0236 44.1565 25.485 43.0594 25.9208C41.9624 26.3566 40.8105 26.754 39.6037 27.1129C38.397 27.4718 37.2085 27.7666 36.0383 27.9973C35.4898 28.0999 34.9047 28.1383 34.283 28.1127C33.6614 28.087 33.0397 28.0294 32.418 27.9396C31.7964 27.8371 31.2295 27.7217 30.7176 27.5936C30.2056 27.4654 29.7851 27.3436 29.456 27.2283C28.7612 26.9719 28.3772 26.6322 28.3041 26.2092C28.2309 25.7734 28.3772 25.3056 28.7429 24.8057C29.072 24.3058 29.584 23.7867 30.2788 23.2483C24.603 23.0274 31.7415 22.2037 32.5826 21.7294C28.7429 22.3831 34.3744 20.8386 35.3252 20.4797C36.276 20.1208 37.1719 19.858 38.013 19.6914C38.5249 19.6016 39.0003 19.5568 39.4392 19.5568C39.878 19.5439 40.3351 19.5696 40.8105 19.6337C41.2859 19.6849 41.7613 19.7683 42.2367 19.8836C42.7486 19.9862 43.3154 20.1015 43.9371 20.2297C44.8147 20.422 45.217 20.6655 45.1438 20.9603C45.1438 21.1013 44.9793 21.3513 44.6502 21.7102C44.3576 22.0691 43.9188 22.4472 43.3337 22.8445C42.7852 23.2291 42.0904 23.5944 41.2493 23.9405C40.4448 24.2737 39.5306 24.498 38.5067 24.6134C37.7753 24.6775 37.1354 24.6967 36.5868 24.6711C36.0383 24.6455 35.4349 24.5814 34.7767 24.4788C34.5938 24.607 34.3927 24.7993 34.1733 25.0556C33.9539 25.2992 33.7893 25.5491 33.6796 25.8055C33.5699 26.0618 33.5334 26.2925 33.5699 26.4976C33.6065 26.6899 33.8259 26.7989 34.2282 26.8245C34.8133 26.8629 35.636 26.754 36.6965 26.4976C37.7936 26.2413 38.9272 25.908 40.0974 25.4978C41.2676 25.0749 42.4195 24.6006 43.5531 24.0751C44.6867 23.5495 45.6009 23.0368 46.2957 22.5369ZM40.8105 21.1141C40.4448 21.2039 39.9694 21.3769 39.3843 21.6333C38.8358 21.8768 38.2873 22.1396 37.7387 22.4216C37.2268 22.7035 36.7697 22.9663 36.3674 23.2099C36.0017 23.4534 35.8189 23.6072 35.8189 23.6713C36.4771 23.7098 37.0805 23.6393 37.629 23.4598C38.2141 23.2804 38.7261 23.056 39.1649 22.7869C39.6403 22.5049 40.006 22.2101 40.2619 21.9024C40.5545 21.5948 40.7373 21.332 40.8105 21.1141Z" fill="#1E1E1E"/>
<path d="M63.5455 21.7218C63.9843 21.5552 64.6974 21.3052 65.6848 20.972C66.6721 20.6387 67.7326 20.267 68.8662 19.8568C70.0364 19.4467 71.1883 19.0173 72.3219 18.5686C73.4556 18.1072 74.4063 17.6778 75.1743 17.2804C75.9422 16.8703 76.4176 16.505 76.6005 16.1845C76.8199 15.8641 76.5639 15.6269 75.8325 15.4731C75.5034 15.3962 74.9914 15.377 74.2966 15.4154C73.6018 15.4411 72.8339 15.5052 71.9928 15.6077C71.1518 15.6974 70.2741 15.8192 69.3599 15.973C68.4823 16.1268 67.6595 16.2999 66.8915 16.4921C67.1109 16.505 67.3852 16.537 67.7143 16.5883C68.0434 16.6396 68.336 16.71 68.592 16.7998C68.8479 16.8767 69.0308 16.9664 69.1405 17.069C69.2502 17.1715 69.2319 17.274 69.0856 17.3766C68.6102 17.697 68.1166 18.0495 67.6046 18.4341C67.1292 18.8058 66.6538 19.1903 66.1784 19.5877C65.7031 19.9722 65.2277 20.3503 64.7523 20.722C64.3135 21.0938 63.9112 21.427 63.5455 21.7218ZM58.2797 29.451C58.8648 29.3613 59.5961 29.201 60.4738 28.9703C61.3514 28.7268 62.2839 28.4448 63.2713 28.1243C64.2586 27.8039 65.2642 27.4642 66.2881 27.1053C67.3121 26.7336 68.2446 26.3683 69.0856 26.0094C69.9633 25.6505 70.6946 25.3172 71.2797 25.0096C71.9014 24.702 72.3037 24.452 72.4865 24.2598C71.3894 24.5033 70.073 24.8366 68.5371 25.2596C67.0378 25.6825 65.5751 26.1376 64.1489 26.6247C62.7227 27.1117 61.4611 27.6052 60.3641 28.1051C59.267 28.605 58.5722 29.0536 58.2797 29.451ZM63.7649 17.1459C61.8268 17.6842 60.1447 18.2418 58.7185 18.8186C57.2923 19.3954 56.2501 19.9145 55.5919 20.376C54.9336 20.8374 54.7142 21.2027 54.9337 21.4719C55.1531 21.7411 55.921 21.8436 57.2375 21.7795C57.0912 22.0487 56.6158 22.2153 55.8113 22.2794C55.0068 22.3435 54.1474 22.3179 53.2332 22.2025C52.3556 22.0871 51.5694 21.8885 50.8746 21.6065C50.1798 21.3117 49.8689 20.9399 49.9421 20.4913C50.0152 20.1068 50.4357 19.6774 51.2037 19.2031C52.0082 18.7289 53.0321 18.2482 54.2754 17.7611C55.5187 17.274 56.9266 16.8062 58.4991 16.3576C60.1081 15.8961 61.7537 15.4924 63.4358 15.1463C65.118 14.7874 66.8001 14.5118 68.4823 14.3195C70.1644 14.1273 71.7186 14.0439 73.1447 14.0696C74.2783 14.0952 75.3754 14.217 76.4359 14.4349C77.4964 14.64 78.3923 14.9027 79.1237 15.2232C79.8916 15.5308 80.4218 15.8705 80.7144 16.2422C81.0435 16.6139 81.0252 16.9664 80.6595 17.2997C80.2939 17.6329 79.8002 17.9534 79.1785 18.261C78.5569 18.5558 77.8986 18.8314 77.2038 19.0878C76.5456 19.3441 75.8874 19.5748 75.2291 19.7799C74.5709 19.985 74.0224 20.1516 73.5836 20.2798C74.644 20.3183 75.6862 20.4721 76.7102 20.7413C77.7706 20.9976 78.5934 21.2988 79.1785 21.6449C80.5315 21.4783 81.7566 21.3245 82.8536 21.1835C83.9873 21.0425 85.194 20.9528 86.4739 20.9143C86.6933 20.9015 86.8396 20.9528 86.9128 21.0681C87.0225 21.1707 87.059 21.2988 87.0224 21.4527C87.0224 21.5937 86.931 21.7282 86.7482 21.8564C86.5654 21.9846 86.2911 22.0615 85.9254 22.0871C84.7552 22.1769 83.6033 22.2922 82.4697 22.4332C81.3361 22.5742 80.4219 22.7088 79.7271 22.837C79.5076 23.4522 78.9043 24.0995 77.9169 24.7789C76.9661 25.4582 75.7594 26.1312 74.2966 26.7977C72.8705 27.4642 71.2432 28.0987 69.4147 28.7012C67.5863 29.2908 65.6848 29.8035 63.7101 30.2393C61.8451 30.6623 60.1446 30.9058 58.6088 30.9699C57.0729 31.0468 55.8661 30.9763 54.9885 30.7584C54.1474 30.5533 53.7086 30.2265 53.672 29.7778C53.672 29.3292 54.2389 28.7973 55.3725 28.182C56.3964 27.6437 57.6763 27.0925 59.2122 26.5285C60.748 25.9645 62.3753 25.4326 64.094 24.9327C65.8128 24.42 67.5315 23.9521 69.2502 23.5291C71.0055 23.1062 72.5962 22.7601 74.0224 22.4909C74.0589 22.4781 74.0772 22.4268 74.0772 22.3371C74.1138 22.2474 74.0955 22.1512 74.0224 22.0487C73.9858 21.9461 73.8944 21.8436 73.7481 21.7411C73.6018 21.6385 73.3824 21.568 73.0899 21.5296C72.5048 21.4527 71.7917 21.4719 70.9506 21.5872C70.1096 21.7026 69.2136 21.8756 68.2628 22.1064C67.3486 22.3371 66.4161 22.6063 65.4654 22.9139C64.5511 23.2215 63.6735 23.5227 62.8324 23.8176C62.0279 24.1124 61.3148 24.3879 60.6932 24.6443C60.0715 24.9007 59.6327 25.0929 59.3767 25.2211C58.9013 25.439 58.4259 25.548 57.9505 25.548C57.5117 25.548 57.0912 25.5159 56.6889 25.4518C56.177 25.3621 55.7747 25.2403 55.4822 25.0865C55.1896 24.9199 55.1531 24.7276 55.3725 24.5097C55.7747 24.0611 56.3232 23.5035 57.018 22.837C57.7494 22.1576 58.5174 21.4719 59.3219 20.7797C60.1264 20.0747 60.9309 19.3954 61.7354 18.7417C62.5399 18.088 63.2164 17.556 63.7649 17.1459Z" fill="#1E1E1E"/>
<path d="M93.4184 22.1064C93.5646 22.0551 93.7475 22.0359 93.9669 22.0487C94.2229 22.0615 94.4606 22.0935 94.68 22.1448C94.8994 22.1961 95.0639 22.2666 95.1736 22.3563C95.2833 22.4332 95.2651 22.5165 95.1188 22.6063C94.6434 23.1062 93.9669 23.6061 93.0892 24.106C92.2482 24.593 91.2791 25.0545 90.1821 25.4903C89.085 25.9261 87.9331 26.3234 86.7263 26.6823C85.5196 27.0412 84.3311 27.3361 83.1609 27.5668C82.6124 27.6693 82.0273 27.7078 81.4056 27.6821C80.784 27.6565 80.1623 27.5988 79.5406 27.5091C78.919 27.4065 78.3522 27.2912 77.8402 27.163C77.3282 27.0348 76.9077 26.9131 76.5786 26.7977C75.8838 26.5413 75.4998 26.2017 75.4267 25.7787C75.3535 25.3429 75.4998 24.875 75.8655 24.3751C76.1946 23.8752 76.7066 23.3561 77.4014 22.8178C78.0962 22.2794 78.8641 21.7731 79.7052 21.2988C80.5828 20.8246 81.497 20.408 82.4478 20.0491C83.3986 19.6902 84.2945 19.4274 85.1356 19.2608C85.6476 19.1711 86.123 19.1262 86.5618 19.1262C87.0006 19.1134 87.4577 19.139 87.9331 19.2031C88.4085 19.2544 88.8839 19.3377 89.3593 19.4531C89.8712 19.5556 90.438 19.671 91.0597 19.7991C91.9373 19.9914 92.3396 20.235 92.2665 20.5298C92.2665 20.6708 92.1019 20.9207 91.7728 21.2796C91.4802 21.6385 91.0414 22.0166 90.4563 22.414C89.9078 22.7985 89.213 23.1638 88.3719 23.5099C87.5674 23.8432 86.6532 24.0675 85.6293 24.1829C84.8979 24.2469 84.258 24.2662 83.7094 24.2405C83.1609 24.2149 82.5575 24.1508 81.8993 24.0483C81.7165 24.1765 81.5153 24.3687 81.2959 24.6251C81.0765 24.8686 80.9119 25.1186 80.8022 25.3749C80.6925 25.6313 80.656 25.862 80.6925 26.0671C80.7291 26.2594 80.9485 26.3683 81.3508 26.3939C81.9359 26.4324 82.7587 26.3234 83.8191 26.0671C84.9162 25.8107 86.0498 25.4775 87.22 25.0673C88.3902 24.6443 89.5421 24.17 90.6757 23.6445C91.8093 23.119 92.7236 22.6063 93.4184 22.1064ZM87.9331 20.6836C87.5674 20.7733 87.092 20.9463 86.5069 21.2027C85.9584 21.4462 85.4099 21.709 84.8613 21.991C84.3494 22.273 83.8923 22.5358 83.49 22.7793C83.1243 23.0228 82.9415 23.1767 82.9415 23.2407C83.5997 23.2792 84.2031 23.2087 84.7516 23.0293C85.3367 22.8498 85.8487 22.6255 86.2875 22.3563C86.7629 22.0743 87.1286 21.7795 87.3846 21.4719C87.6771 21.1643 87.8599 20.9015 87.9331 20.6836Z" fill="#1E1E1E"/>
<path d="M108.851 21.7218C108.961 21.6706 109.162 21.6513 109.454 21.6642C109.783 21.6642 110.076 21.6898 110.332 21.7411C110.624 21.7923 110.844 21.8628 110.99 21.9526C111.173 22.0295 111.191 22.1128 111.045 22.2025C110.35 22.6255 109.546 23.0998 108.631 23.6253C107.754 24.138 106.803 24.6443 105.779 25.1442C104.792 25.6441 103.768 26.0991 102.707 26.5093C101.647 26.9067 100.605 27.1886 99.5807 27.3553C99.0322 27.445 98.4471 27.477 97.8254 27.4514C97.2403 27.413 96.6918 27.3425 96.1799 27.2399C95.7045 27.1246 95.2839 26.99 94.9182 26.8362C94.5891 26.6695 94.4063 26.5093 94.3697 26.3555C94.2966 26.1504 94.3697 25.8684 94.5891 25.5095C94.8085 25.1506 95.0462 24.8238 95.3022 24.5289C94.8634 24.7084 94.388 24.9199 93.876 25.1634C93.4006 25.3941 92.8704 25.6441 92.2853 25.9133C91.7002 26.1824 91.0786 26.4516 90.4203 26.7208C89.7987 26.99 89.1404 27.2399 88.4456 27.4706C88.1165 27.586 87.6046 27.6309 86.9098 27.6052C86.2515 27.5796 85.5933 27.5155 84.9351 27.413C84.2768 27.2976 83.71 27.1566 83.2346 26.99C82.7227 26.8105 82.5032 26.6247 82.5764 26.4324C82.6861 25.9453 83.0152 25.4262 83.5637 24.875C84.1123 24.3239 84.7888 23.7919 85.5933 23.2792C86.3612 22.7537 87.2206 22.2666 88.1714 21.818C89.1587 21.3693 90.1278 21.004 91.0785 20.722C91.7733 20.5298 92.4133 20.4208 92.9984 20.3952C93.5835 20.3695 94.1503 20.3952 94.6988 20.4721C95.2474 20.5362 95.7959 20.6387 96.3444 20.7797C96.8929 20.9079 97.478 21.0361 98.0997 21.1643C98.5019 21.0104 98.8859 20.8502 99.2516 20.6836C99.6538 20.5041 100.074 20.3311 100.513 20.1645C100.769 20.0491 101.171 20.0042 101.72 20.0299C102.305 20.0555 102.854 20.126 103.366 20.2414C103.878 20.3567 104.28 20.4977 104.572 20.6644C104.901 20.8182 104.938 20.9656 104.682 21.1066C103.439 21.85 102.433 22.5101 101.665 23.0869C100.934 23.6637 100.385 24.1508 100.02 24.5482C99.6904 24.9455 99.5259 25.2467 99.5259 25.4518C99.5624 25.6569 99.7087 25.7595 99.9647 25.7595C100.696 25.7466 101.811 25.4006 103.311 24.7212C104.81 24.0419 106.657 23.0421 108.851 21.7218ZM95.5216 22.4717C95.6313 22.4204 95.6862 22.3307 95.6862 22.2025C95.6862 22.0743 95.613 21.959 95.4668 21.8564C95.3571 21.7411 95.1742 21.6706 94.9182 21.6449C94.6623 21.6193 94.3332 21.6834 93.9309 21.8372C93.0898 22.1192 92.3036 22.4524 91.5722 22.837C90.8774 23.2215 90.2558 23.5996 89.7072 23.9714C89.1953 24.3431 88.7747 24.6892 88.4456 25.0096C88.1165 25.3172 87.9519 25.548 87.9519 25.7018C88.3542 25.5864 88.8844 25.4006 89.5427 25.1442C90.2375 24.875 90.9506 24.5802 91.6819 24.2598C92.4133 23.9393 93.1264 23.6189 93.8212 23.2984C94.516 22.978 95.0828 22.7024 95.5216 22.4717Z" fill="#1E1E1E"/>
<path d="M145.755 20.0683C146.048 19.5556 145.188 19.1518 143.177 18.857C141.129 18.5494 138.496 18.3571 135.278 18.2802C132.499 19.4851 130.031 21.0168 127.873 22.8754C126.813 23.7983 125.972 24.6507 125.35 25.4326C124.728 26.2145 124.326 26.9451 124.143 27.6245C123.851 28.9319 124.966 29.5856 127.489 29.5856C126.136 30.0727 124.454 30.1624 122.443 29.8548C120.358 29.5471 119.133 28.855 118.768 27.7783C118.731 27.6116 118.731 27.4322 118.768 27.2399C118.804 27.0476 118.896 26.8233 119.042 26.567C118.64 26.7849 118.219 26.9707 117.78 27.1246C117.378 27.2656 116.976 27.3873 116.573 27.4899C115.769 27.7078 114.946 27.7654 114.105 27.6629C112.898 27.4835 111.984 27.2591 111.362 26.99C110.741 26.7336 110.485 26.3491 110.595 25.8364C109.973 26.1824 109.315 26.5093 108.62 26.8169C108.291 26.9707 107.907 27.1374 107.468 27.3168C107.029 27.4963 106.517 27.695 105.932 27.9129C105.384 28.1051 104.542 28.1884 103.409 28.1628C102.239 28.1243 101.215 28.0154 100.337 27.8359C99.3863 27.6565 98.8561 27.4194 98.7464 27.1246C98.6366 26.6503 98.9109 25.9581 99.5692 25.0481C99.8617 24.6123 100.227 24.1957 100.666 23.7983C101.068 23.3882 101.489 22.9844 101.928 22.587C102.403 22.2153 102.805 21.9077 103.135 21.6642C103.5 21.4206 103.829 21.254 104.122 21.1643C104.634 21.0489 105.292 21.0297 106.097 21.1066C106.535 21.1322 106.919 21.1771 107.249 21.2412C107.614 21.2924 107.943 21.3501 108.236 21.4142C108.784 21.5808 108.949 21.7282 108.73 21.8564C108.547 21.9846 108.291 22.1576 107.962 22.3755C107.669 22.5934 107.322 22.8498 106.919 23.1446C106.517 23.4394 106.133 23.7535 105.767 24.0867C105.438 24.42 105.128 24.7597 104.835 25.1057C104.542 25.4518 104.305 25.7595 104.122 26.0286C103.976 26.285 103.884 26.4901 103.848 26.6439C104.25 26.6054 105.054 26.2658 106.261 25.6249C106.883 25.3044 107.523 24.9519 108.181 24.5674C108.876 24.17 109.589 23.7406 110.32 23.2792C111.088 22.8049 111.82 22.3371 112.514 21.8756C113.246 21.4142 113.922 20.9528 114.544 20.4913C114.873 20.2734 115.476 20.1965 116.354 20.2606C116.756 20.2862 117.14 20.3311 117.506 20.3952C117.872 20.4465 118.237 20.5234 118.603 20.6259C119.261 20.8054 119.481 20.9848 119.261 21.1643C118.786 21.5103 118.292 21.9077 117.78 22.3563C117.268 22.8049 116.738 23.3112 116.19 23.8752C115.129 24.9519 114.69 25.7915 114.873 26.3939C115.604 26.3298 116.519 26.0414 117.616 25.5287C118.164 25.2724 118.676 24.9968 119.152 24.702C119.664 24.4072 120.175 24.106 120.687 23.7983C121.711 23.1702 122.424 22.6832 122.827 22.3371C123.668 21.7218 124.564 21.0809 125.514 20.4144C126.502 19.7479 127.562 19.0493 128.696 18.3187C125.332 18.4084 122.114 18.6199 119.042 18.9532C116.043 19.2864 113.557 19.7543 111.582 20.3567C111.216 20.4849 110.777 20.4977 110.265 20.3952C109.68 20.267 109.168 20.094 108.73 19.8761C108.181 19.6069 107.815 19.3762 107.632 19.1839C107.45 18.966 107.541 18.8122 107.907 18.7225C110.247 18.2354 113.538 17.8188 117.78 17.4727C122.132 17.1266 126.593 16.9151 131.164 16.8382C132.627 16.0179 133.998 15.3642 135.278 14.8771C135.9 14.7105 136.65 14.7105 137.527 14.8771C138.515 15.0053 139.282 15.2168 139.831 15.5116C140.343 15.8064 140.325 16.082 139.776 16.3383C139.337 16.4793 138.862 16.6588 138.35 16.8767C139.118 16.9023 139.849 16.9344 140.544 16.9728C141.275 17.0113 141.97 17.0625 142.628 17.1266C144.274 17.3189 145.444 17.6201 146.139 18.0303C146.834 18.4533 147.108 18.8634 146.962 19.2608C146.852 19.671 146.45 19.9401 145.755 20.0683Z" fill="#1E1E1E"/>
<path d="M142.008 22.1064C142.154 22.0551 142.337 22.0359 142.556 22.0487C142.812 22.0615 143.05 22.0935 143.27 22.1448C143.489 22.1961 143.654 22.2666 143.763 22.3563C143.873 22.4332 143.855 22.5165 143.708 22.6063C143.233 23.1062 142.556 23.6061 141.679 24.106C140.838 24.593 139.869 25.0545 138.772 25.4903C137.675 25.9261 136.523 26.3234 135.316 26.6823C134.109 27.0412 132.921 27.3361 131.751 27.5668C131.202 27.6693 130.617 27.7078 129.995 27.6821C129.374 27.6565 128.752 27.5988 128.13 27.5091C127.509 27.4065 126.942 27.2912 126.43 27.163C125.918 27.0348 125.497 26.9131 125.168 26.7977C124.473 26.5413 124.089 26.2017 124.016 25.7787C123.943 25.3429 124.089 24.875 124.455 24.3751C124.784 23.8752 125.296 23.3561 125.991 22.8178C126.686 22.2794 127.454 21.7731 128.295 21.2988C129.172 20.8246 130.087 20.408 131.037 20.0491C131.988 19.6902 132.884 19.4274 133.725 19.2608C134.237 19.1711 134.713 19.1262 135.151 19.1262C135.59 19.1134 136.047 19.139 136.523 19.2031C136.998 19.2544 137.473 19.3377 137.949 19.4531C138.461 19.5556 139.028 19.671 139.649 19.7991C140.527 19.9914 140.929 20.235 140.856 20.5298C140.856 20.6708 140.691 20.9207 140.362 21.2796C140.07 21.6385 139.631 22.0166 139.046 22.414C138.497 22.7985 137.803 23.1638 136.962 23.5099C136.157 23.8432 135.243 24.0675 134.219 24.1829C133.488 24.2469 132.848 24.2662 132.299 24.2405C131.751 24.2149 131.147 24.1508 130.489 24.0483C130.306 24.1765 130.105 24.3687 129.886 24.6251C129.666 24.8686 129.502 25.1186 129.392 25.3749C129.282 25.6313 129.246 25.862 129.282 26.0671C129.319 26.2594 129.538 26.3683 129.94 26.3939C130.525 26.4324 131.348 26.3234 132.409 26.0671C133.506 25.8107 134.639 25.4775 135.81 25.0673C136.98 24.6443 138.132 24.17 139.265 23.6445C140.399 23.119 141.313 22.6063 142.008 22.1064ZM136.523 20.6836C136.157 20.7733 135.682 20.9463 135.097 21.2027C134.548 21.4462 133.999 21.709 133.451 21.991C132.939 22.273 132.482 22.5358 132.08 22.7793C131.714 23.0228 131.531 23.1767 131.531 23.2407C132.189 23.2792 132.793 23.2087 133.341 23.0293C133.926 22.8498 134.438 22.6255 134.877 22.3563C135.353 22.0743 135.718 21.7795 135.974 21.4719C136.267 21.1643 136.45 20.9015 136.523 20.6836ZM137.071 14.8771C137.51 14.7746 138.113 14.8258 138.881 15.0309C139.613 15.2104 140.143 15.4347 140.472 15.7038C140.801 15.9602 140.728 16.1653 140.253 16.3191C138.973 16.5883 137.547 16.9728 135.974 17.4727C134.475 17.9598 133.158 18.4725 132.025 19.0109C131.732 19.1134 131.403 19.1518 131.037 19.1262C130.562 19.1006 130.196 19.0237 129.94 18.8955C129.611 18.7801 129.575 18.652 129.831 18.511C130.014 18.37 130.233 18.2033 130.489 18.0111C130.781 17.806 131.147 17.5753 131.586 17.3189C131.988 17.0625 132.409 16.8126 132.848 16.5691C133.323 16.3127 133.798 16.0692 134.274 15.8384C135.298 15.3514 136.23 15.0309 137.071 14.8771Z" fill="#1E1E1E"/>
</svg>
