<svg width="190" height="104" viewBox="0 0 190 104" fill="none" xmlns="http://www.w3.org/2000/svg">
<path d="M11.0601 38.5578C10.2566 39.1598 9.45307 39.9768 8.64956 41.0089C7.84605 42.0409 7.1607 43.1375 6.59351 44.2985C6.0736 45.4596 5.7191 46.6206 5.53004 47.7817C5.34098 48.8997 5.41188 49.8888 5.74274 50.7488C6.12086 51.5658 6.80621 52.1678 7.79878 52.5549C8.83862 52.8989 10.3275 52.8774 12.2654 52.4904C14.156 52.0603 16.1175 51.3723 18.1499 50.4263C20.1823 49.4802 22.0493 48.4052 23.7508 47.2011C25.4524 45.9541 26.8467 44.664 27.9338 43.331C29.0209 41.9979 29.5645 40.7509 29.5645 39.5898C29.5645 38.3428 29.0918 37.2892 28.1465 36.4292C27.2485 35.5691 26.0905 34.8166 24.6725 34.1716C23.3018 33.4836 21.7657 32.8815 20.0641 32.3655C18.4098 31.8065 16.8028 31.226 15.2431 30.6239C13.7306 29.9789 12.3835 29.2479 11.2019 28.4308C10.0202 27.6138 9.24037 26.6033 8.86225 25.3992C8.34233 23.7651 8.53139 21.9161 9.42943 19.852C10.3747 17.7449 11.7454 15.6808 13.5415 13.6597C15.3376 11.6386 17.4409 9.81103 19.8514 8.17696C22.262 6.49989 24.6725 5.29584 27.083 4.56481C29.5408 3.83378 31.8332 3.68327 33.9601 4.11329C36.1343 4.54331 37.9068 5.83336 39.2775 7.98345C39.6083 7.33843 40.0337 6.6074 40.5536 5.79036C41.1208 4.97333 41.6644 4.17779 42.1843 3.40376C42.7042 2.62973 43.2005 1.9417 43.6732 1.33967C44.1931 0.737648 44.5948 0.35063 44.8784 0.178622C45.3038 -0.0793878 45.9892 -0.0578867 46.9345 0.243125C47.8798 0.501138 48.7542 0.909655 49.5577 1.46868C50.4085 1.9847 51.0465 2.56522 51.4719 3.21025C51.9446 3.85528 51.8973 4.3713 51.3301 4.75832C50.4321 5.48935 49.4159 6.54289 48.2815 7.91895C47.1472 9.25201 46.0128 10.7571 44.8784 12.4341C43.7913 14.0682 42.7515 15.7883 41.7589 17.5944C40.7663 19.3574 39.9392 21.0345 39.2775 22.6256C38.663 24.1737 38.2613 25.5497 38.0722 26.7538C37.9304 27.9148 38.1195 28.7318 38.6394 29.2049C38.1667 29.5919 37.5523 29.7424 36.7961 29.6564C36.0398 29.5274 35.3072 29.2264 34.5982 28.7533C33.8892 28.2373 33.2748 27.5923 32.7549 26.8183C32.2822 26.0012 32.1168 25.0982 32.2586 24.1091C32.4004 22.9051 32.7312 21.572 33.2512 20.11C33.8183 18.6479 34.3619 17.1859 34.8818 15.7238C35.4017 14.2187 35.7799 12.7997 36.0162 11.4666C36.2998 10.0905 36.2289 8.8865 35.8035 7.85445C35.5672 7.29543 34.9291 7.14492 33.8892 7.40293C32.8967 7.61794 31.6914 8.13396 30.2734 8.951C28.8555 9.72503 27.343 10.7141 25.736 11.9181C24.1762 13.1222 22.711 14.4122 21.3403 15.7883C19.9696 17.1214 18.788 18.4759 17.7954 19.852C16.8501 21.228 16.3065 22.4536 16.1647 23.5286C16.0229 24.6037 16.4483 25.5067 17.4409 26.2377C18.4807 26.9258 19.8042 27.6138 21.4112 28.3018C23.0655 28.9469 24.8616 29.6349 26.7994 30.3659C28.7373 31.0539 30.5098 31.914 32.1168 32.946C33.7711 33.9351 35.1181 35.1821 36.158 36.6872C37.1978 38.1493 37.6468 39.9768 37.505 42.1699C37.4578 43.245 37.0087 44.406 36.158 45.6531C35.3545 46.9001 34.2674 48.1472 32.8967 49.3942C31.526 50.6413 29.9426 51.8453 28.1465 53.0064C26.3504 54.1674 24.4362 55.1995 22.4038 56.1025C20.3714 57.0485 18.2917 57.8226 16.1647 58.4246C14.0378 59.0266 11.9818 59.3921 9.99662 59.5211C8.29506 59.6071 6.85347 59.5426 5.67184 59.3276C4.49021 59.1126 3.49763 58.7901 2.69412 58.3601C1.74882 57.8011 1.06347 57.113 0.638082 56.296C0.212694 55.479 0 54.576 0 53.5869C0 52.5549 0.165429 51.4798 0.496286 50.3618C0.827143 49.2437 1.27616 48.1257 1.84335 47.0076C2.78865 45.1586 3.89939 43.3955 5.17555 41.7184C6.49898 40.0413 7.82241 38.6223 9.14584 37.4612C9.38217 37.2892 9.66576 37.2247 9.99662 37.2677C10.3275 37.2677 10.6111 37.3537 10.8474 37.5257C11.0837 37.6547 11.2255 37.8267 11.2728 38.0417C11.3673 38.2568 11.2964 38.4288 11.0601 38.5578Z" fill="white"/>
<path d="M65.1929 30.5594C65.3347 30.3874 65.5947 30.3229 65.9728 30.3659C66.3982 30.3659 66.7763 30.4519 67.1072 30.6239C67.4853 30.7959 67.7689 31.0324 67.9579 31.3335C68.1943 31.5915 68.2179 31.871 68.0288 32.172C67.1308 33.5911 66.091 35.1821 64.9093 36.9452C63.775 38.6653 62.546 40.3638 61.2226 42.0409C59.9465 43.718 58.623 45.2446 57.2523 46.6206C55.8816 47.9537 54.5346 48.8997 53.2112 49.4587C52.5022 49.7597 51.7459 49.8673 50.9424 49.7812C50.1862 49.6522 49.4772 49.4157 48.8155 49.0717C48.201 48.6847 47.6575 48.2332 47.1848 47.7172C46.7594 47.1581 46.5231 46.6206 46.4758 46.1046C46.3813 45.4166 46.4758 44.4705 46.7594 43.2665C47.043 42.0624 47.3503 40.9659 47.6811 39.9768C47.1139 40.5789 46.4995 41.2884 45.8378 42.1054C45.2233 42.8795 44.538 43.718 43.7817 44.621C43.0255 45.5241 42.222 46.4271 41.3712 47.3301C40.5677 48.2332 39.7169 49.0717 38.8189 49.8457C38.3935 50.2328 37.7318 50.3833 36.8337 50.2973C35.9829 50.2113 35.1322 49.9963 34.2814 49.6522C33.4306 49.2652 32.698 48.7922 32.0836 48.2332C31.4218 47.6312 31.1382 47.0076 31.2328 46.3626C31.3746 44.7285 31.8 42.987 32.5089 41.1379C33.2179 39.2888 34.0923 37.5042 35.1322 35.7841C36.1247 34.0211 37.2355 32.387 38.4644 30.8819C39.7405 29.3769 40.9931 28.1513 42.222 27.2053C43.12 26.5603 43.9471 26.1947 44.7034 26.1087C45.4596 26.0227 46.1923 26.1087 46.9012 26.3667C47.6102 26.5818 48.3192 26.9258 49.0282 27.3988C49.7372 27.8288 50.4934 28.2588 51.2969 28.6888C51.8168 28.1728 52.3131 27.6353 52.7858 27.0763C53.3057 26.4743 53.8492 25.8937 54.4164 25.3347C54.7473 24.9477 55.2672 24.7972 55.9762 24.8832C56.7324 24.9692 57.4414 25.2057 58.1031 25.5927C58.7648 25.9797 59.2847 26.4528 59.6629 27.0118C60.0883 27.5278 60.1355 28.0223 59.8047 28.4953C58.1977 30.9894 56.8978 33.204 55.9053 35.1391C54.96 37.0742 54.251 38.7083 53.7783 40.0413C53.3529 41.3744 53.1403 42.3849 53.1403 43.073C53.1875 43.761 53.3766 44.105 53.7074 44.105C54.6527 44.062 56.0943 42.901 58.0322 40.6219C59.9701 38.3428 62.357 34.9886 65.1929 30.5594ZM47.9647 33.075C48.1065 32.903 48.1774 32.602 48.1774 32.172C48.1774 31.742 48.0829 31.355 47.8938 31.0109C47.752 30.6239 47.5157 30.3874 47.1848 30.3014C46.854 30.2154 46.4286 30.4304 45.9087 30.9464C44.8216 31.8925 43.8054 33.0105 42.86 34.3006C41.962 35.5906 41.1585 36.8592 40.4495 38.1062C39.7878 39.3533 39.2442 40.5144 38.8189 41.5894C38.3935 42.6214 38.1808 43.3955 38.1808 43.9115C38.7007 43.5245 39.386 42.901 40.2368 42.0409C41.1349 41.1379 42.0565 40.1488 43.0018 39.0738C43.9471 37.9987 44.8688 36.9237 45.7669 35.8487C46.6649 34.7736 47.3975 33.8491 47.9647 33.075Z" fill="white"/>
<path d="M61.8457 57.9731C61.6567 58.0161 61.3967 58.0161 61.0659 57.9731C60.7823 57.9731 60.4042 57.9516 59.9315 57.9086C59.0335 57.9086 57.8518 57.3711 56.3866 56.296C54.9214 55.264 53.8815 53.6299 53.2671 51.3938C53.2198 51.1788 53.1962 50.9423 53.1962 50.6843C53.1489 50.4263 53.1253 50.1683 53.1253 49.9103C53.0308 48.3192 53.1962 46.4486 53.6216 44.2985C53.9997 42.1484 54.6614 39.7188 55.6067 37.0097C56.5048 34.3006 57.5682 31.5915 58.7971 28.8824C60.026 26.1302 61.3967 23.3781 62.9092 20.626C64.4217 17.9169 65.8633 15.6378 67.234 13.7887C68.652 11.8966 69.9754 10.4346 71.2043 9.40252C71.5824 9.18751 71.9369 9.08 72.2677 9.08C72.6459 9.08 73.0949 9.16601 73.6148 9.33801C74.182 9.51002 74.7964 9.83254 75.4582 10.3056L75.8835 10.4991C77.1597 11.1871 77.8451 11.8751 77.9396 12.5632C77.9869 12.7782 77.8451 13.0362 77.5142 13.3372C75.0091 15.4013 72.575 18.2394 70.2117 21.8516C67.8957 25.5067 65.9342 29.3124 64.3272 33.2685C62.6256 37.2247 61.4204 41.0519 60.7114 44.75C60.1442 47.3731 59.9079 49.6952 60.0024 51.7163C60.0497 52.0603 60.0969 52.5119 60.1442 53.0709C60.2387 53.5869 60.3569 54.2104 60.4987 54.9415C60.8768 56.4035 62.1057 57.1561 64.1854 57.1991C63.5237 57.7151 62.7438 57.9731 61.8457 57.9731Z" fill="white"/>
<path d="M114.889 31.1399C115.267 31.613 115.338 32.172 115.101 32.817C114.912 33.419 114.369 34.5801 113.471 36.3002C112.998 37.0312 112.407 37.9127 111.698 38.9448C110.989 39.9768 110.162 41.1164 109.217 42.3634C107.137 44.9005 105.175 46.6636 103.332 47.6527C102.434 48.0827 101.347 48.2332 100.071 48.1042C99.4091 47.9752 98.7947 47.8247 98.2275 47.6527C97.7076 47.4807 97.1876 47.2656 96.6677 47.0076C95.6279 46.4056 95.0134 45.8036 94.8244 45.2016C94.5881 44.2555 94.659 42.901 95.0371 41.1379C95.2734 40.2778 95.4861 39.4393 95.6752 38.6223C95.9115 37.7622 96.1715 36.8807 96.455 35.9777C96.7386 35.1176 96.9986 34.3866 97.2349 33.7846C97.4712 33.1395 97.6839 32.5805 97.873 32.1075C97.9203 31.9355 97.9675 31.785 98.0148 31.656C98.0621 31.527 98.0857 31.4195 98.0857 31.3335C96.9513 32.3225 95.7933 33.5696 94.6117 35.0746C93.4301 36.5367 92.1539 38.2568 90.7832 40.2348C88.0891 44.148 86.0803 47.3516 84.7569 49.8457C84.4733 50.4478 83.717 50.6843 82.4881 50.5553C81.3538 50.4263 80.3376 50.1253 79.4395 49.6522C78.447 49.1362 78.0216 48.5557 78.1634 47.9107C78.3052 47.3946 78.5179 46.7711 78.8014 46.0401C79.085 45.2661 79.4159 44.3415 79.794 43.2665C80.3612 41.8044 80.9047 40.2993 81.4247 38.7513C81.9918 37.1602 82.5354 35.5476 83.0553 33.9136C83.3862 32.8385 83.6461 31.8495 83.8352 30.9464C84.0715 30.0004 84.237 29.0974 84.3315 28.2373C84.3315 28.0653 84.3315 27.9363 84.3315 27.8503C84.3788 27.7213 84.4024 27.5923 84.4024 27.4633C84.2606 26.0012 83.6225 25.0982 82.4881 24.7542C81.1174 24.3672 79.6995 24.3672 78.2343 24.7542C76.6745 25.0982 75.4456 25.5282 74.5476 26.0442C77.0999 27.1623 78.5179 28.9254 78.8014 31.3335C78.8014 33.1395 78.5651 34.9886 78.0925 36.8807C77.6671 38.7728 76.9345 40.6864 75.8946 42.6214C73.9567 46.4916 71.9716 48.9857 69.9392 50.1038C67.7177 50.9638 65.189 51.0283 62.3531 50.2973C59.5172 49.5232 57.792 47.8247 57.1776 45.2016C57.083 44.2125 57.1303 43.116 57.3194 41.9119C57.4611 40.6649 57.792 39.3318 58.3119 37.9127C58.7846 36.4937 59.3045 35.2036 59.8717 34.0426C60.4861 32.8385 61.1242 31.7635 61.7859 30.8174C62.3058 30.3014 63.0857 30.1939 64.1256 30.4949C65.1181 30.7529 66.0634 31.2475 66.9615 31.9785C67.765 32.6235 67.9777 33.247 67.5996 33.8491C67.2687 34.3221 66.9142 34.8811 66.5361 35.5261C66.158 36.1712 65.7562 36.9022 65.3308 37.7192C64.9054 38.5363 64.5273 39.3318 64.1965 40.1058C63.9129 40.8799 63.6529 41.6969 63.4166 42.5569C62.8967 44.234 62.8967 45.5886 63.4166 46.6206C63.6056 47.0506 63.9838 47.2441 64.551 47.2011C65.0709 47.0721 65.7798 46.5991 66.6779 45.7821C67.9068 44.492 68.9466 43.1375 69.7974 41.7184C70.6482 40.2563 71.3335 38.7513 71.8534 37.2032C72.9405 34.1071 73.1532 31.6775 72.4915 29.9144C71.8298 28.1943 70.1519 28.0653 67.4578 29.5274C66.3707 30.0434 65.3308 30.0004 64.3383 29.3984C63.2511 28.8394 62.4949 28.0438 62.0695 27.0118C61.6441 26.0657 61.9277 25.3132 62.9203 24.7542C64.4328 24.0231 66.1107 23.3566 67.954 22.7546C69.8447 22.1526 71.8771 21.6795 74.0513 21.3355C78.4942 20.6475 82.559 21.314 86.2457 23.3351C87.9 24.3242 89.0108 25.5282 89.5779 26.9473C90.1451 28.3663 90.3342 29.8284 90.1451 31.3335C90.0506 31.9785 89.9324 32.6235 89.7906 33.2685C89.6488 33.9136 89.4361 34.5801 89.1525 35.2681C88.9162 35.7841 88.6799 36.3217 88.4436 36.8807C88.2545 37.3967 88.0418 37.9127 87.8055 38.4288C87.9473 38.2568 88.0891 38.0847 88.2309 37.9127C88.3727 37.7407 88.4908 37.5472 88.5854 37.3322C89.5307 36.0852 90.476 34.8381 91.4213 33.5911C92.4138 32.344 93.4537 31.0324 94.5408 29.6564C96.6677 26.9903 98.6056 25.0767 100.354 23.9156C101.252 23.3996 102.292 23.3136 103.474 23.6576C104.608 23.9156 105.601 24.4317 106.452 25.2057C107.161 26.0227 107.397 26.7753 107.161 27.4633C107.019 27.8073 106.853 28.1728 106.664 28.5598C106.523 28.9039 106.333 29.3124 106.097 29.7854C105.53 30.9464 104.963 32.172 104.396 33.4621C103.828 34.7521 103.238 36.1067 102.623 37.5257C101.489 40.3208 100.922 42.5354 100.922 44.1695C101.725 43.7825 102.529 43.2665 103.332 42.6214C104.183 41.9334 105.01 41.0949 105.814 40.1058C106.759 39.1168 107.586 38.0847 108.295 37.0097C109.051 35.9347 109.76 34.8166 110.422 33.6556C111.415 32.0215 112.123 31.0324 112.549 30.6884C112.738 30.6024 112.903 30.5379 113.045 30.4949C113.187 30.4089 113.329 30.3874 113.471 30.4304C114.085 30.5594 114.558 30.7959 114.889 31.1399Z" fill="white"/>
<path d="M44.3866 48.7834C45.0011 48.4824 45.7337 48.4609 46.5845 48.7189C47.4353 48.9339 36.904 63.0133 44.2203 53.7249C41.4152 60.0058 50.0585 50.826 50.3421 51.428C50.6257 51.987 50.5311 52.4385 50.0585 52.7826C48.1679 54.1156 46.2772 56.1152 44.3866 58.7813C42.5433 61.4044 40.8417 64.307 39.282 67.4892C37.7222 70.6713 36.3752 73.9395 35.2408 77.2936C34.1537 80.6477 33.4211 83.7224 33.043 86.5175C32.7121 89.3126 33.043 86.5175 36.7297 96.3864C33.0393 89.6188 37.2969 98.1925 36.7297 96.3864C36.3515 96.7734 35.7844 97.0099 35.0281 97.0959C34.2719 97.2249 33.4447 97.1389 32.5467 96.8379C31.6959 96.5799 30.8451 96.0854 29.9944 95.3544C29.1908 94.6233 28.5291 93.6343 28.0092 92.3872C27.4893 91.1402 27.1821 89.6351 27.0875 87.872C26.993 86.066 27.253 83.9374 27.8674 81.4863C27.8674 81.3143 27.8438 81.2283 27.7965 81.2283C27.7493 81.1853 27.6784 81.2498 27.5838 81.4218C27.2057 82.0238 26.7803 82.6688 26.3077 83.3569C25.835 84.0449 25.3151 84.7114 24.7479 85.3564C24.228 85.9585 23.7081 86.496 23.1882 86.969C22.7155 87.442 22.2901 87.743 21.912 87.872C21.3448 88.0441 20.6595 88.1086 19.8559 88.0656C19.0997 88.0226 18.3671 87.8721 17.6581 87.614C16.9019 87.313 16.2638 86.9045 15.7439 86.3885C15.2239 85.8725 14.9404 85.2274 14.8931 84.4534C14.8458 83.4214 14.9876 82.1958 15.3185 80.7767C15.6021 79.3577 16.0511 77.8741 16.6655 76.3261C17.2327 74.778 17.9417 73.2299 18.7925 71.6819C19.6433 70.1338 20.5649 68.7577 21.5575 67.5537C22.5973 66.3066 23.6844 65.2961 24.8188 64.522C26.0004 63.705 27.2057 63.2535 28.4346 63.1675C29.3799 63.1245 30.2543 63.275 31.0578 63.619C31.9086 63.963 32.7121 64.307 33.4684 64.6511C33.6574 64.178 33.9883 63.5115 34.4609 62.6515C34.9336 61.7484 35.4771 60.7594 36.0916 59.6843C36.706 58.6093 37.3677 57.4913 38.0767 56.3302C38.833 55.1692 39.5656 54.0726 40.2746 53.0406C41.0308 52.0085 41.7634 51.127 42.4724 50.3959C43.1814 49.6219 43.8195 49.0844 44.3866 48.7834ZM30.8451 69.3598C31.0342 68.8007 31.0342 68.3492 30.8451 68.0052C30.7033 67.6182 30.278 67.5322 29.569 67.7472C28.9073 67.9622 28.1983 68.4567 27.442 69.2307C26.7331 70.0048 26.0241 70.9293 25.3151 72.0044C24.6061 73.0364 23.9444 74.133 23.3299 75.294C22.7628 76.4551 22.2901 77.5516 21.912 78.5837C21.5811 79.5727 21.3684 80.4327 21.2739 81.1638C21.2266 81.8948 21.3921 82.3248 21.7702 82.4538C21.9593 82.5398 22.3137 82.3248 22.8337 81.8088C23.3536 81.2928 23.9208 80.6047 24.5352 79.7447C25.1969 78.8847 25.8823 77.9386 26.5913 76.9066C27.3002 75.8315 27.9383 74.7995 28.5055 73.8104C29.12 72.7784 29.6399 71.8754 30.0653 71.1013C30.4906 70.2843 30.7506 69.7038 30.8451 69.3598Z" fill="white"/>
<path d="M59.838 75.6077C60.0271 75.4357 60.2634 75.3712 60.547 75.4142C60.8779 75.4572 61.1851 75.5647 61.4687 75.7367C61.7523 75.9087 61.965 76.1452 62.1068 76.4463C62.2485 76.7043 62.2249 76.9838 62.0359 77.2848C61.4214 78.9619 60.547 80.6389 59.4126 82.316C58.3255 83.9501 57.073 85.4981 55.6551 86.9602C54.2371 88.4223 52.7482 89.7553 51.1885 90.9594C49.6287 92.1634 48.0926 93.1525 46.5801 93.9265C45.8711 94.2705 45.1149 94.3995 44.3114 94.3135C43.5079 94.2275 42.7044 94.034 41.9008 93.733C41.0973 93.389 40.3647 93.002 39.703 92.5719C39.0413 92.1419 38.4977 91.7334 38.0724 91.3464C37.1743 90.4863 36.678 89.3468 36.5835 87.9277C36.489 86.4657 36.678 84.8961 37.1507 83.219C37.5761 81.542 38.2378 79.8004 39.1358 77.9943C31.7998 77.2531 41.0264 74.4897 42.1135 72.8986C37.1507 75.0917 44.4295 69.91 45.6584 68.7059C46.8873 67.5019 48.0453 66.6203 49.1324 66.0613C49.7941 65.7603 50.4086 65.6098 50.9758 65.6098C51.543 65.5668 52.1338 65.6528 52.7482 65.8678C53.3627 66.0398 53.9771 66.3193 54.5916 66.7063C55.2533 67.0503 55.9859 67.4374 56.7894 67.8674C57.9238 68.5124 58.4437 69.3294 58.3492 70.3185C58.3492 70.7915 58.1365 71.63 57.7111 72.8341C57.333 74.0381 56.7658 75.3067 56.0095 76.6398C55.3006 77.9298 54.4025 79.1554 53.3154 80.3164C52.2756 81.4345 51.0939 82.187 49.7705 82.574C48.8252 82.789 47.9981 82.8535 47.2891 82.7675C46.5801 82.6815 45.8002 82.4665 44.9494 82.1225C44.7131 82.5525 44.4532 83.1975 44.1696 84.0576C43.886 84.8746 43.6733 85.7131 43.5315 86.5732C43.3897 87.4332 43.3424 88.2073 43.3897 88.8953C43.437 89.5403 43.7206 89.9058 44.2405 89.9918C44.9967 90.1208 46.0602 89.7553 47.4309 88.8953C48.8488 88.0352 50.3141 86.9172 51.8266 85.5411C53.3391 84.1221 54.8279 82.531 56.2931 80.7679C57.7584 79.0049 58.94 77.2848 59.838 75.6077ZM52.7482 70.8345C52.2756 71.1355 51.6611 71.716 50.9049 72.5761C50.1959 73.3931 49.4869 74.2747 48.7779 75.2207C48.1162 76.1667 47.5254 77.0483 47.0055 77.8653C46.5328 78.6823 46.2965 79.1984 46.2965 79.4134C47.1473 79.5424 47.9272 79.3059 48.6361 78.7038C49.3924 78.1018 50.0541 77.3493 50.6213 76.4463C51.2357 75.5002 51.7084 74.5112 52.0392 73.4791C52.4174 72.4471 52.6537 71.5655 52.7482 70.8345Z" fill="white"/>
<path d="M82.1336 72.8732C82.7008 72.3142 83.6225 71.4757 84.8987 70.3576C86.1748 69.2396 87.5455 67.9925 89.0107 66.6165C90.5232 65.2404 92.0121 63.7998 93.4773 62.2948C94.9426 60.7467 96.1714 59.3062 97.164 57.9731C98.1566 56.597 98.771 55.3715 99.0074 54.2964C99.291 53.2214 98.9601 52.4259 98.0148 51.9098C97.5894 51.6518 96.9277 51.5873 96.0297 51.7163C95.1316 51.8023 94.139 52.0173 93.0519 52.3614C91.9648 52.6624 90.8305 53.0709 89.6488 53.5869C88.5145 54.1029 87.451 54.6835 86.4584 55.3285C86.742 55.3715 87.0965 55.479 87.5219 55.651C87.9473 55.823 88.3254 56.0595 88.6563 56.3605C88.9871 56.6185 89.2234 56.9196 89.3652 57.2636C89.507 57.6076 89.4834 57.9516 89.2944 58.2956C88.6799 59.3707 88.0418 60.5532 87.3801 61.8433C86.7657 63.0903 86.1512 64.3804 85.5368 65.7134C84.9223 67.0035 84.3079 68.272 83.6934 69.5191C83.1262 70.7661 82.6063 71.8842 82.1336 72.8732ZM75.3274 98.8033C76.0837 98.5023 77.029 97.9648 78.1634 97.1908C79.2977 96.3737 80.503 95.4277 81.7792 94.3527C83.0553 93.2776 84.3551 92.1381 85.6785 90.934C87.002 89.687 88.2072 88.4614 89.2944 87.2573C90.4287 86.0533 91.374 84.9353 92.1303 83.9032C92.9338 82.8712 93.4537 82.0326 93.69 81.3876C92.2721 82.2046 90.5705 83.3227 88.5854 84.7417C86.6475 86.1608 84.7569 87.6874 82.9135 89.3214C81.0702 90.9555 79.4395 92.6111 78.0216 94.2882C76.6036 95.9652 75.7056 97.4703 75.3274 98.8033ZM82.4172 57.5216C79.9122 59.3277 77.738 61.1982 75.8946 63.1333C74.0513 65.0684 72.7042 66.81 71.8534 68.358C71.0027 69.9061 70.7191 71.1317 71.0027 72.0347C71.2863 72.9377 72.2788 73.2818 73.9804 73.0667C73.7913 73.9698 73.1769 74.5288 72.137 74.7438C71.0972 74.9588 69.9865 74.8728 68.8048 74.4858C67.6705 74.0988 66.6543 73.4323 65.7562 72.4862C64.8582 71.4972 64.4564 70.2501 64.551 68.7451C64.6455 67.455 65.189 66.0144 66.1816 64.4234C67.2214 62.8323 68.5449 61.2197 70.1519 59.5857C71.7589 57.9516 73.5786 56.382 75.611 54.877C77.6907 53.3289 79.8177 51.9743 81.9919 50.8133C84.1661 49.6092 86.3403 48.6847 88.5145 48.0397C90.6887 47.3946 92.6974 47.1151 94.5408 47.2011C96.006 47.2871 97.424 47.6957 98.7947 48.4267C100.165 49.1147 101.323 49.9963 102.269 51.0713C103.261 52.1033 103.947 53.2429 104.325 54.4899C104.75 55.737 104.726 56.9196 104.254 58.0376C103.781 59.1556 103.143 60.2307 102.34 61.2627C101.536 62.2518 100.685 63.1763 99.7872 64.0364C98.9365 64.8964 98.0857 65.6704 97.2349 66.3584C96.3841 67.0465 95.6752 67.6055 95.108 68.0355C96.4787 68.1645 97.8257 68.6806 99.1492 69.5836C100.52 70.4436 101.583 71.4542 102.34 72.6152C104.088 72.0562 105.672 71.5402 107.09 71.0672C108.555 70.5941 110.115 70.2931 111.769 70.1641C112.053 70.1211 112.242 70.2931 112.336 70.6801C112.478 71.0242 112.525 71.4542 112.478 71.9702C112.478 72.4432 112.36 72.8947 112.123 73.3248C111.887 73.7548 111.533 74.0128 111.06 74.0988C109.548 74.3998 108.059 74.7868 106.593 75.2598C105.128 75.7329 103.947 76.1844 103.049 76.6144C102.765 78.6785 101.985 80.8501 100.709 83.1292C99.48 85.4083 97.9203 87.6659 96.0297 89.902C94.1863 92.1381 92.083 94.2666 89.7197 96.2877C87.3565 98.2658 84.8987 99.9859 82.3463 101.448C79.9358 102.867 77.738 103.684 75.7528 103.899C73.7677 104.157 72.2079 103.921 71.0736 103.19C69.9865 102.501 69.4193 101.405 69.372 99.8999C69.372 98.3948 70.1046 96.6102 71.5699 94.5462C72.8933 92.7401 74.5476 90.891 76.5327 88.9989C78.5178 87.1068 80.6212 85.3223 82.8426 83.6452C85.0641 81.9251 87.2856 80.3556 89.507 78.9365C91.7758 77.5174 93.8318 76.3564 95.6752 75.4533C95.7224 75.4103 95.746 75.2383 95.746 74.9373C95.7933 74.6363 95.7697 74.3138 95.6752 73.9698C95.6279 73.6258 95.5097 73.2818 95.3207 72.9377C95.1316 72.5937 94.848 72.3572 94.4699 72.2282C93.7137 71.9702 92.792 72.0347 91.7049 72.4217C90.6178 72.8087 89.4598 73.3893 88.2309 74.1633C87.0492 74.9373 85.844 75.8404 84.6151 76.8724C83.4334 77.9045 82.2991 78.915 81.212 79.904C80.1721 80.8931 79.2505 81.8176 78.447 82.6777C77.6434 83.5377 77.0763 84.1827 76.7454 84.6127C76.131 85.3438 75.5165 85.7093 74.902 85.7093C74.3349 85.7093 73.7913 85.6018 73.2714 85.3868C72.6097 85.0858 72.0898 84.6772 71.7116 84.1612C71.3335 83.6022 71.2863 82.9572 71.5699 82.2261C72.0898 80.7211 72.7987 78.8505 73.6968 76.6144C74.6421 74.3353 75.6347 72.0347 76.6745 69.7126C77.7143 67.3475 78.7542 65.0684 79.794 62.8753C80.8338 60.6822 81.7083 58.8976 82.4172 57.5216Z" fill="white"/>
<path d="M120.745 74.1633C120.934 73.9913 121.17 73.9268 121.454 73.9698C121.785 74.0128 122.092 74.1203 122.375 74.2923C122.659 74.4643 122.872 74.7008 123.014 75.0018C123.155 75.2598 123.132 75.5393 122.943 75.8404C122.328 77.5174 121.454 79.1945 120.319 80.8716C119.232 82.5056 117.98 84.0537 116.562 85.5158C115.144 86.9778 113.655 88.3109 112.095 89.5149C110.535 90.719 108.999 91.708 107.487 92.4821C106.778 92.8261 106.022 92.9551 105.218 92.8691C104.415 92.7831 103.611 92.5896 102.808 92.2886C102.004 91.9446 101.271 91.5575 100.61 91.1275C99.9481 90.6975 99.4045 90.289 98.9791 89.902C98.0811 89.0419 97.5848 87.9024 97.4903 86.4833C97.3957 85.0213 97.5848 83.4517 98.0574 81.7746C98.4828 80.0975 99.1446 78.356 100.043 76.5499C100.941 74.7438 101.933 73.0452 103.02 71.4542C104.155 69.8631 105.336 68.4655 106.565 67.2615C107.794 66.0574 108.952 65.1759 110.039 64.6169C110.701 64.3159 111.315 64.1654 111.883 64.1654C112.45 64.1224 113.041 64.2084 113.655 64.4234C114.269 64.5954 114.884 64.8749 115.498 65.2619C116.16 65.6059 116.893 65.9929 117.696 66.423C118.831 67.068 119.35 67.885 119.256 68.8741C119.256 69.3471 119.043 70.1856 118.618 71.3897C118.24 72.5937 117.673 73.8623 116.916 75.1953C116.207 76.4854 115.309 77.7109 114.222 78.872C113.182 79.99 112.001 80.7426 110.677 81.1296C109.732 81.3446 108.905 81.4091 108.196 81.3231C107.487 81.2371 106.707 81.0221 105.856 80.6781C105.62 81.1081 105.36 81.7531 105.076 82.6132C104.793 83.4302 104.58 84.2687 104.438 85.1288C104.296 85.9888 104.249 86.7628 104.296 87.4509C104.344 88.0959 104.627 88.4614 105.147 88.5474C105.903 88.6764 106.967 88.3109 108.338 87.4509C109.756 86.5908 111.221 85.4728 112.733 84.0967C114.246 82.6776 115.735 81.0866 117.2 79.3235C118.665 77.5604 119.847 75.8404 120.745 74.1633ZM113.655 69.3901C113.182 69.6911 112.568 70.2716 111.812 71.1317C111.103 71.9487 110.394 72.8302 109.685 73.7763C109.023 74.7223 108.432 75.6038 107.912 76.4209C107.44 77.2379 107.203 77.7539 107.203 77.969C108.054 78.098 108.834 77.8614 109.543 77.2594C110.299 76.6574 110.961 75.9049 111.528 75.0018C112.143 74.0558 112.615 73.0667 112.946 72.0347C113.324 71.0027 113.56 70.1211 113.655 69.3901Z" fill="white"/>
<path d="M140.691 72.8732C140.833 72.7012 141.093 72.6367 141.471 72.6797C141.897 72.6797 142.275 72.7657 142.606 72.9377C142.984 73.1097 143.267 73.3463 143.457 73.6473C143.693 73.9053 143.716 74.1848 143.527 74.4858C142.629 75.9049 141.59 77.4959 140.408 79.259C139.274 80.9791 138.045 82.6777 136.721 84.3547C135.445 86.0318 134.122 87.5584 132.751 88.9344C131.38 90.2675 130.033 91.2135 128.71 91.7725C128.001 92.0736 127.245 92.1811 126.441 92.0951C125.685 91.9661 124.976 91.7295 124.314 91.3855C123.7 90.9985 123.156 90.547 122.683 90.031C122.258 89.4719 122.022 88.9344 121.974 88.4184C121.88 87.7304 121.974 86.7843 122.258 85.5803C122.542 84.3762 122.849 83.2797 123.18 82.2906C122.613 82.8927 121.998 83.6022 121.336 84.4192C120.722 85.1933 120.037 86.0318 119.28 86.9348C118.524 87.8379 117.721 88.7409 116.87 89.6439C116.066 90.547 115.215 91.3855 114.317 92.1596C113.892 92.5466 113.23 92.6971 112.332 92.6111C111.482 92.5251 110.631 92.3101 109.78 91.9661C108.929 91.579 108.197 91.106 107.582 90.547C106.92 89.945 106.637 89.3214 106.731 88.6764C106.873 87.0423 107.299 85.3008 108.008 83.4517C108.717 81.6026 109.591 79.818 110.631 78.098C111.623 76.3349 112.734 74.7008 113.963 73.1957C115.239 71.6907 116.492 70.4651 117.721 69.5191C118.619 68.8741 119.446 68.5085 120.202 68.4225C120.958 68.3365 121.691 68.4225 122.4 68.6806C123.109 68.8956 123.818 69.2396 124.527 69.7126C125.236 70.1426 125.992 70.5726 126.795 71.0027C127.315 70.4866 127.812 69.9491 128.284 69.3901C128.804 68.7881 129.348 68.2075 129.915 67.6485C130.246 67.2615 130.766 67.111 131.475 67.197C132.231 67.283 132.94 67.5195 133.602 67.9065C134.263 68.2935 134.783 68.7666 135.161 69.3256C135.587 69.8416 135.634 70.3361 135.303 70.8091C133.696 73.3032 132.396 75.5178 131.404 77.4529C130.459 79.388 129.75 81.0221 129.277 82.3551C128.852 83.6882 128.639 84.6987 128.639 85.3868C128.686 86.0748 128.875 86.4188 129.206 86.4188C130.151 86.3758 131.593 85.2148 133.531 82.9357C135.469 80.6566 137.856 77.3024 140.691 72.8732ZM123.463 75.3888C123.605 75.2168 123.676 74.9158 123.676 74.4858C123.676 74.0558 123.581 73.6688 123.392 73.3248C123.251 72.9377 123.014 72.7012 122.683 72.6152C122.353 72.5292 121.927 72.7442 121.407 73.2603C120.32 74.2063 119.304 75.3243 118.359 76.6144C117.461 77.9044 116.657 79.173 115.948 80.4201C115.286 81.6671 114.743 82.8282 114.317 83.9032C113.892 84.9353 113.679 85.7093 113.679 86.2253C114.199 85.8383 114.885 85.2148 115.735 84.3547C116.633 83.4517 117.555 82.4626 118.5 81.3876C119.446 80.3126 120.367 79.2375 121.265 78.1625C122.164 77.0874 122.896 76.1629 123.463 75.3888Z" fill="white"/>
<path d="M188.391 67.326C188.769 65.6059 187.658 64.2514 185.059 63.2623C182.412 62.2303 179.009 61.5853 174.849 61.3272C171.257 65.3694 168.067 70.5081 165.278 76.7434C163.907 79.8395 162.82 82.6992 162.017 85.3223C161.213 87.9454 160.693 90.3965 160.457 92.6756C160.079 97.0618 161.521 99.2548 164.782 99.2548C163.033 100.889 160.859 101.19 158.259 100.158C155.565 99.1258 153.982 96.8038 153.509 93.1916C153.462 92.6326 153.462 92.0306 153.509 91.3855C153.556 90.7405 153.675 89.988 153.864 89.1279C153.344 89.859 152.8 90.4825 152.233 90.9985C151.713 91.4715 151.193 91.88 150.673 92.2241C149.633 92.9551 148.57 93.1486 147.483 92.8046C145.923 92.2026 144.741 91.45 143.938 90.547C143.134 89.687 142.803 88.3969 142.945 86.6768C142.142 87.8379 141.291 88.9344 140.393 89.9665C139.968 90.4825 139.471 91.0415 138.904 91.6435C138.337 92.2456 137.675 92.9121 136.919 93.6431C136.21 94.2882 135.123 94.5677 133.658 94.4817C132.145 94.3527 130.822 93.9871 129.687 93.3851C128.458 92.7831 127.773 91.9875 127.631 90.9985C127.49 89.4074 127.844 87.0853 128.695 84.0322C129.073 82.5701 129.546 81.1726 130.113 79.8395C130.633 78.4635 131.176 77.1089 131.743 75.7759C132.358 74.5288 132.878 73.4968 133.303 72.6797C133.776 71.8627 134.201 71.3037 134.579 71.0027C135.241 70.6156 136.092 70.5511 137.132 70.8091C137.699 70.8951 138.195 71.0457 138.621 71.2607C139.093 71.4327 139.519 71.6262 139.897 71.8412C140.606 72.4002 140.818 72.8947 140.535 73.3248C140.298 73.7548 139.968 74.3353 139.542 75.0663C139.164 75.7974 138.715 76.6574 138.195 77.6464C137.675 78.6355 137.179 79.689 136.706 80.8071C136.281 81.9251 135.879 83.0647 135.501 84.2257C135.123 85.3868 134.816 86.4188 134.579 87.3219C134.39 88.1819 134.272 88.8699 134.225 89.3859C134.745 89.2569 135.785 88.1174 137.344 85.9673C138.148 84.8923 138.975 83.7097 139.826 82.4196C140.724 81.0866 141.646 79.646 142.591 78.098C143.583 76.5069 144.529 74.9373 145.427 73.3893C146.372 71.8412 147.246 70.2931 148.05 68.7451C148.475 68.014 149.255 67.756 150.39 67.971C150.909 68.057 151.406 68.2075 151.878 68.4225C152.351 68.5945 152.824 68.8526 153.296 69.1966C154.147 69.7986 154.431 70.4006 154.147 71.0027C153.533 72.1637 152.895 73.4968 152.233 75.0018C151.571 76.5069 150.886 78.2055 150.177 80.0975C148.806 83.7097 148.239 86.5263 148.475 88.5474C149.421 88.3324 150.602 87.3649 152.02 85.6448C152.729 84.7847 153.391 83.8602 154.005 82.8712C154.667 81.8821 155.329 80.8716 155.991 79.8395C157.314 77.7324 158.236 76.0984 158.756 74.9373C159.843 72.8732 161.001 70.7231 162.23 68.487C163.506 66.251 164.876 63.9074 166.342 61.4562C161.993 61.7573 157.834 62.4668 153.864 63.5848C149.988 64.7029 146.774 66.2724 144.221 68.2935C143.749 68.7236 143.182 68.7666 142.52 68.4225C141.764 67.9925 141.102 67.412 140.535 66.681C139.826 65.7779 139.353 65.0039 139.117 64.3589C138.88 63.6278 138.999 63.1118 139.471 62.8108C142.496 61.1767 146.75 59.7792 152.233 58.6181C157.857 57.4571 163.624 56.7475 169.532 56.4895C171.423 53.7374 173.195 51.5443 174.849 49.9103C175.653 49.3512 176.622 49.3512 177.756 49.9103C179.032 50.3403 180.025 51.0498 180.734 52.0388C181.396 53.0279 181.372 53.9524 180.663 54.8125C180.096 55.2855 179.481 55.8875 178.82 56.6185C179.812 56.7045 180.758 56.8121 181.656 56.9411C182.601 57.0701 183.499 57.2421 184.35 57.4571C186.477 58.1021 187.989 59.1126 188.887 60.4887C189.785 61.9078 190.14 63.2838 189.951 64.6169C189.809 65.9929 189.289 66.896 188.391 67.326Z" fill="white"/>
<path d="M183.548 74.1633C183.737 73.9913 183.973 73.9268 184.257 73.9698C184.587 74.0128 184.895 74.1203 185.178 74.2923C185.462 74.4643 185.675 74.7008 185.816 75.0018C185.958 75.2598 185.935 75.5393 185.745 75.8404C185.131 77.5174 184.257 79.1945 183.122 80.8716C182.035 82.5056 180.783 84.0537 179.365 85.5158C177.947 86.9778 176.458 88.3109 174.898 89.5149C173.338 90.719 171.802 91.708 170.29 92.4821C169.581 92.8261 168.825 92.9551 168.021 92.8691C167.217 92.7831 166.414 92.5896 165.61 92.2886C164.807 91.9446 164.074 91.5575 163.413 91.1275C162.751 90.6975 162.207 90.289 161.782 89.902C160.884 89.0419 160.388 87.9024 160.293 86.4833C160.199 85.0213 160.388 83.4517 160.86 81.7746C161.286 80.0975 161.947 78.356 162.845 76.5499C163.744 74.7438 164.736 73.0452 165.823 71.4542C166.958 69.8631 168.139 68.4655 169.368 67.2615C170.597 66.0574 171.755 65.1759 172.842 64.6169C173.504 64.3159 174.118 64.1654 174.685 64.1654C175.253 64.1224 175.843 64.2084 176.458 64.4234C177.072 64.5954 177.687 64.8749 178.301 65.2619C178.963 65.6059 179.696 65.9929 180.499 66.423C181.633 67.068 182.153 67.885 182.059 68.8741C182.059 69.3471 181.846 70.1856 181.421 71.3897C181.043 72.5937 180.475 73.8623 179.719 75.1953C179.01 76.4854 178.112 77.7109 177.025 78.872C175.985 79.99 174.804 80.7426 173.48 81.1296C172.535 81.3446 171.708 81.4091 170.999 81.3231C170.29 81.2371 169.51 81.0221 168.659 80.6781C168.423 81.1081 168.163 81.7531 167.879 82.6132C167.596 83.4302 167.383 84.2687 167.241 85.1288C167.099 85.9888 167.052 86.7628 167.099 87.4509C167.147 88.0959 167.43 88.4614 167.95 88.5474C168.706 88.6764 169.77 88.3109 171.141 87.4509C172.558 86.5908 174.024 85.4728 175.536 84.0967C177.049 82.6776 178.538 81.0866 180.003 79.3235C181.468 77.5604 182.65 75.8404 183.548 74.1633ZM176.458 69.3901C175.985 69.6911 175.371 70.2716 174.615 71.1317C173.906 71.9487 173.197 72.8302 172.488 73.7763C171.826 74.7223 171.235 75.6038 170.715 76.4209C170.242 77.2379 170.006 77.7539 170.006 77.969C170.857 78.098 171.637 77.8614 172.346 77.2594C173.102 76.6574 173.764 75.9049 174.331 75.0018C174.945 74.0558 175.418 73.0667 175.749 72.0347C176.127 71.0027 176.363 70.1211 176.458 69.3901ZM177.167 49.9103C177.734 49.5662 178.514 49.7382 179.506 50.4263C180.452 51.0283 181.137 51.7808 181.563 52.6839C181.988 53.5439 181.893 54.2319 181.279 54.748C179.625 55.651 177.781 56.9411 175.749 58.6181C173.811 60.2522 172.109 61.9723 170.644 63.7783C170.266 64.1224 169.841 64.2514 169.368 64.1654C168.754 64.0794 168.281 63.8213 167.95 63.3913C167.525 63.0043 167.477 62.5743 167.808 62.1013C168.045 61.6283 168.328 61.0692 168.659 60.4242C169.037 59.7362 169.51 58.9621 170.077 58.1021C170.597 57.2421 171.141 56.4035 171.708 55.5865C172.322 54.7265 172.937 53.9094 173.551 53.1354C174.874 51.5013 176.08 50.4263 177.167 49.9103Z" fill="white"/>
</svg>
